<?xml version="1.0" encoding="UTF-8" standalone="no"?>
<!-- Created with Inkscape (http://www.inkscape.org/) -->
<svg
   xmlns:dc="http://purl.org/dc/elements/1.1/"
   xmlns:cc="http://web.resource.org/cc/"
   xmlns:rdf="http://www.w3.org/1999/02/22-rdf-syntax-ns#"
   xmlns:svg="http://www.w3.org/2000/svg"
   xmlns="http://www.w3.org/2000/svg"
   xmlns:sodipodi="http://inkscape.sourceforge.net/DTD/sodipodi-0.dtd"
   xmlns:inkscape="http://www.inkscape.org/namespaces/inkscape"
   width="744.09448819"
   height="1052.3622047"
   id="svg2195"
   sodipodi:version="0.32"
   inkscape:version="0.42+0.43pre1"
   sodipodi:docbase="/home/no228/Work/Linux4Chemistry/pics"
   sodipodi:docname="shareware.svg"
   inkscape:export-filename="/home/no228/Work/Linux4Chemistry/pics/shareware.png"
   inkscape:export-xdpi="5.7399998"
   inkscape:export-ydpi="5.7399998">
  <defs
     id="defs2197">
    <linearGradient
       id="linearGradient1541">
      <stop
         id="stop1542"
         offset="0"
         style="stop-color:#000;stop-opacity:1;" />
      <stop
         id="stop1543"
         offset="1"
         style="stop-color:#fff;stop-opacity:1;" />
    </linearGradient>
    <linearGradient
       id="linearGradient1546">
      <stop
         id="stop1547"
         offset="0"
         style="stop-color:#000;stop-opacity:1;" />
      <stop
         id="stop1548"
         offset="1"
         style="stop-color:#fff;stop-opacity:1;" />
    </linearGradient>
    <linearGradient
       id="linearGradient1549">
      <stop
         id="stop1550"
         offset="0.0000000"
         style="stop-color:#e1a547;stop-opacity:1.0000000;" />
      <stop
         id="stop1552"
         offset="0.50000000"
         style="stop-color:#cdb250;stop-opacity:1.0000000;" />
      <stop
         id="stop1551"
         offset="1.0000000"
         style="stop-color:#ffaaaa;stop-opacity:1.0000000;" />
    </linearGradient>
  </defs>
  <sodipodi:namedview
     id="base"
     pagecolor="#ffffff"
     bordercolor="#666666"
     borderopacity="1.0"
     inkscape:pageopacity="0.0"
     inkscape:pageshadow="2"
     inkscape:zoom="0.34254972"
     inkscape:cx="344.97739"
     inkscape:cy="462.09736"
     inkscape:document-units="px"
     inkscape:current-layer="layer1"
     inkscape:window-width="1280"
     inkscape:window-height="912"
     inkscape:window-x="0"
     inkscape:window-y="27" />
  <metadata
     id="metadata2200">
    <rdf:RDF>
      <cc:Work
         rdf:about="">
        <dc:format>image/svg+xml</dc:format>
        <dc:type
           rdf:resource="http://purl.org/dc/dcmitype/StillImage" />
      </cc:Work>
    </rdf:RDF>
  </metadata>
  <g
     inkscape:label="Layer 1"
     inkscape:groupmode="layer"
     id="layer1">
    <path
       style="fill:#ca8f62;fill-opacity:0.99899298;fill-rule:evenodd;stroke:#000000;stroke-width:10;stroke-linecap:butt;stroke-linejoin:miter;stroke-miterlimit:4;stroke-dasharray:none;stroke-opacity:1"
       d="M -1025.6346,227.59268 C -972.36307,222.16373 -919.09153,216.73479 -865.81999,211.30584 C -857.67657,206.2162 -849.53315,201.12657 -841.38973,196.03693 C -822.72772,188.57213 -804.06572,179.07147 -785.40371,171.60666 C -768.77756,161.42739 -755.46561,149.4615 -738.57905,146.15848 C -719.2162,142.3711 -691.07576,143.78331 -670.3779,153.28397 C -626.60702,216.39548 -582.83613,279.50698 -539.06525,342.61849 C -502.75917,378.58526 -466.45309,414.55203 -430.14701,450.5188 C -414.53879,471.55597 -416.39784,504.9478 -426.0753,519.73787 C -434.38123,532.43184 -464.75655,540.77504 -484.09717,532.97093 C -482.73993,550.2757 -486.47233,570.63425 -495.29437,581.83145 C -507.17019,589.63556 -528.20736,596.42175 -543.13696,593.02866 C -539.06525,607.61895 -545.83681,627.952 -555.35209,636.79954 C -565.17743,645.93538 -578.76442,651.72914 -601.15883,646.97881 C -602.51607,654.44361 -602.41002,664.02927 -607.38989,668.65344 C -616.66101,677.26233 -631.01804,680.90973 -643.91179,686.67799 C -827.13874,590.6535 -893.30403,589.29625 -984.9175,571.65218 C -998.15056,470.87736 -1012.4015,328.3675 -1025.6346,227.59268 z "
       id="path4929"
       sodipodi:nodetypes="ccccscccscccscsccc" />
    <text
       xml:space="preserve"
       style="font-size:965.49255371px;font-style:normal;font-variant:normal;font-weight:normal;font-stretch:normal;text-align:start;line-height:125%;writing-mode:lr-tb;text-anchor:start;fill:#e6ed00;fill-opacity:1;stroke:#000000;stroke-width:9.99999905;stroke-linecap:butt;stroke-linejoin:miter;stroke-miterlimit:4;stroke-dasharray:none;stroke-opacity:1;font-family:Bitstream Vera Sans"
       x="-986.12054"
       y="680.26752"
       id="text6508"
       sodipodi:linespacing="125%"
       transform="scale(0.979878,1.020535)"><tspan
         sodipodi:role="line"
         id="tspan6510"
         x="-986.12054"
         y="680.26752"
         style="fill:#e6ed00;fill-opacity:1;stroke:#000000;stroke-width:9.99999905;stroke-miterlimit:4;stroke-dasharray:none;stroke-opacity:1">$</tspan></text>
    <path
       style="fill:#bcbcbc;fill-opacity:1;fill-rule:evenodd;stroke:#000000;stroke-width:10;stroke-linecap:butt;stroke-linejoin:miter;stroke-miterlimit:4;stroke-dasharray:none;stroke-opacity:1"
       d="M -1091.7999,190.94729 C -1016.8126,197.73347 -941.54304,202.25462 -866.83791,211.30584 C -832.02925,215.52323 -836.39715,384.80799 -845.46144,468.8415 C -852.68399,535.80057 -886.51737,602.90272 -915.69843,664.28358 C -925.87723,685.69416 -948.61134,718.23374 -963.54103,718.23374 C -978.80986,718.23374 -1049.0469,698.55381 -1091.7999,688.71384 L -1091.7999,190.94729 z "
       id="path8038"
       sodipodi:nodetypes="csssscc" />
    <path
       style="fill:#ffd8b4;fill-opacity:1;fill-rule:evenodd;stroke:#000000;stroke-width:10;stroke-linecap:butt;stroke-linejoin:miter;stroke-miterlimit:4;stroke-dasharray:none;stroke-opacity:1"
       d="M -864.91465,548.9575 C -872.41293,557.16991 -880.50412,579.43657 -883.62902,592.14451 C -884.10303,594.07217 -878.19576,590.72304 -876.43118,592.14451 C -870.27814,600.56008 -867.3785,605.22903 -857.71681,613.01823 C -852.92426,616.88196 -847.75131,620.38168 -842.60136,623.81498 C -835.51499,628.53922 -828.51053,633.48944 -821.00786,637.49086 C -810.51594,643.08655 -801.19755,651.99585 -788.6176,652.60631 C -769.79069,668.97481 -758.8374,675.53535 -736.7932,681.39766 C -732.20541,693.05008 -725.41175,705.39884 -713.76013,708.74943 C -703.14456,711.80208 -685.32072,707.76897 -673.45225,704.43073 C -662.63916,701.38933 -648.83907,689.20833 -643.22135,683.557 C -636.69682,676.99344 -639.03537,665.71556 -643.22135,656.20524 C -646.0435,649.79343 -657.43172,645.34242 -665.53463,641.80956 C -661.05178,636.2249 -654.9186,632.22277 -654.73788,626.69411 C -654.33041,614.2286 -657.63293,604.40153 -666.9742,594.30386 C -677.04531,583.41724 -696.44258,578.67679 -708.72164,587.10602 C -707.95912,578.43686 -706.35245,565.97212 -714.47991,556.87512 C -726.83113,543.05051 -740.90973,537.45283 -759.10648,538.16075 C -788.70032,539.31207 -795.03886,553.67398 -810.21111,564.79273 C -820.87446,572.6072 -839.07531,581.1461 -846.92006,579.90819 C -849.15228,574.18819 -848.38706,565.7983 -853.39811,559.03447 C -856.51848,554.82265 -859.45683,551.8915 -864.91465,548.9575 z "
       id="path3686"
       sodipodi:nodetypes="cscsssccsssscsscssscsc" />
    <path
       style="fill:#404f60;fill-opacity:1;fill-rule:evenodd;stroke:#000000;stroke-width:1pt;stroke-linecap:butt;stroke-linejoin:miter;stroke-opacity:0"
       d="M -476.97168,163.46325 L -489.18681,167.53496 L -494.27644,181.78594 L -415.89603,462.73393 L -403.6809,470.87735 L -396.5554,472.91321 L -388.41198,468.8415 L -381.28649,429.14233 L -391.46577,334.47507 L -418.94981,226.57475 L -456.61313,167.53496 L -476.97168,163.46325 z "
       id="path13008" />
    <path
       style="fill:#ffd8b4;fill-opacity:1;fill-rule:nonzero;stroke:#000000;stroke-width:10;stroke-linecap:butt;stroke-linejoin:miter;stroke-miterlimit:4;stroke-dasharray:none;stroke-opacity:1"
       d="M -463.01884,171.78132 C -475.23397,174.8351 -498.19625,185.43437 -510.46098,183.8218 C -523.86569,182.05934 -549.21206,174.51631 -579.78682,169.37781 C -610.93302,164.14327 -627.00344,153.28507 -655.10899,152.14255 C -687.65803,150.8194 -696.84402,171.60667 -713.13086,187.89351 C -743.32938,208.59137 -788.53518,228.85984 -797.61884,243.87952 C -807.46671,260.16281 -822.72772,298.16899 -823.06703,313.09859 C -831.54976,329.38543 -844.50916,344.55019 -845.63609,362.67889 C -847.28331,389.17764 -813.50226,392.41063 -798.63677,386.38937 C -787.75214,381.98056 -780.99269,373.49562 -772.17065,367.04875 C -747.11293,357.56928 -729.97282,327.93588 -712.11293,301.90139 C -693.54325,295.91732 -682.89118,289.21347 -669.35998,277.47113 C -662.01867,285.00827 -651.07845,283.18823 -640.85801,278.48905 C -642.23765,295.88614 -557.24327,332.71738 -537.0294,343.63642 C -501.52543,381.00159 -466.74125,413.32828 -429.07793,449.97367 C -427.7207,454.04538 -423.48433,461.71601 -422.12709,465.78772 C -416.69814,462.73394 -407.78036,461.01865 -403.6809,456.62637 C -398.27971,450.83937 -395.53748,442.37538 -391.46577,435.24989 C -371.10722,429.82094 -350.74866,424.392 -330.39011,418.96305 C -357.53485,328.02819 -384.67958,237.09334 -411.82432,146.15848 C -429.12909,155.65914 -445.71407,162.28066 -463.01884,171.78132 z "
       id="path919"
       sodipodi:nodetypes="cszscscsscccccccscccc" />
    <path
       style="fill:#6e88a4;fill-opacity:1;fill-rule:evenodd;stroke:#000000;stroke-width:10;stroke-linecap:butt;stroke-linejoin:miter;stroke-miterlimit:4;stroke-dasharray:none;stroke-opacity:1"
       d="M -498.34815,181.78594 C -499.39725,175.76071 -493.24853,163.97721 -482.06131,159.39154 C -374.93193,116.65856 -276.43996,96.958647 -173.62928,65.742197 L -160.39622,422.01683 C -273.34683,441.05931 -321.15703,455.0633 -394.51955,476.98492 C -398.76591,476.8926 -410.21011,469.96234 -415.89603,463.75186 C -409.44915,465.78772 -399.36268,470.82555 -396.5554,469.85943 C -390.52006,467.78237 -389.54231,447.52231 -390.44784,436.26782 C -394.29264,388.48252 -397.82666,338.79141 -410.80639,292.74004 C -422.59623,250.91034 -433.69103,193.90947 -464.75655,172.62459 C -469.2522,169.54435 -476.94331,167.21109 -482.06131,168.72754 C -486.10465,169.92556 -490.28707,174.8351 -492.24059,180.76801 L -498.34815,181.78594 z "
       id="path9902"
       sodipodi:nodetypes="ccccccssssscc" />
    <text
       xml:space="preserve"
       style="font-size:965.49230957px;font-style:normal;font-variant:normal;font-weight:normal;font-stretch:normal;text-align:start;line-height:125%;writing-mode:lr-tb;text-anchor:start;fill:#e6ed00;fill-opacity:1;stroke:#000000;stroke-width:9.99999714;stroke-linecap:butt;stroke-linejoin:miter;stroke-miterlimit:4;stroke-dasharray:none;stroke-opacity:1;font-family:Bitstream Vera Sans"
       x="112.93397"
       y="769.20428"
       id="text9356"
       sodipodi:linespacing="125%"
       transform="scale(0.979878,1.020535)"
       inkscape:export-filename="/home/no228/Work/Linux4Chemistry/pics/commercial.png"
       inkscape:export-xdpi="5.7399998"
       inkscape:export-ydpi="5.7399998"><tspan
         sodipodi:role="line"
         id="tspan9358"
         x="112.93397"
         y="769.20428"
         style="fill:#e6ed00;fill-opacity:1;stroke:#000000;stroke-width:9.99999714;stroke-miterlimit:4;stroke-dasharray:none;stroke-opacity:1">$</tspan></text>
  </g>
</svg>
